<mxfile host="app.diagrams.net" agent="Mozilla/5.0 (Windows NT 10.0; Win64; x64) AppleWebKit/537.36 (KHTML, like Gecko) Chrome/131.0.0.0 Safari/537.36 Edg/131.0.0.0" version="25.0.1">
  <diagram name="Page-1" id="Xg3soweqNMj47UL6k-7p">
    <mxGraphModel dx="1440" dy="837" grid="1" gridSize="10" guides="1" tooltips="1" connect="1" arrows="1" fold="1" page="1" pageScale="1" pageWidth="827" pageHeight="1169" background="#ffffff" math="0" shadow="0">
      <root>
        <mxCell id="0" />
        <mxCell id="1" parent="0" />
        
        <!-- Email Client -->
        <mxCell id="emailClient" value="Email Client" style="shape=rectangle;whiteSpace=wrap;html=1;fillColor=#d9e8fb;strokeColor=#0066cc;" vertex="1" parent="1">
          <mxGeometry x="60" y="100" width="120" height="60" as="geometry" />
        </mxCell>
        
        <!-- Zoom AI Summaries -->
        <mxCell id="zoomAISummaries" value="Zoom AI Summaries" style="shape=ellipse;whiteSpace=wrap;html=1;fillColor=#fbe4d5;strokeColor=#cc6600;" vertex="1" parent="1">
          <mxGeometry x="60" y="30" width="120" height="60" as="geometry" />
        </mxCell>

        <!-- Link Zoom to Email -->
        <mxCell id="zoomToEmail" edge="1" source="zoomAISummaries" target="emailClient" style="edgeStyle=orthogonalEdgeStyle;rounded=0;orthogonalLoop=1;html=1;strokeColor=#0066cc;">
          <mxGeometry relative="1" as="geometry" />
        </mxCell>

        <!-- Email Reader Component -->
        <mxCell id="emailReader" value="Email Reader" style="shape=rectangle;whiteSpace=wrap;html=1;fillColor=#d9e8fb;strokeColor=#0066cc;" vertex="1" parent="1">
          <mxGeometry x="240" y="100" width="120" height="60" as="geometry" />
        </mxCell>

        <!-- Link Email to Reader -->
        <mxCell id="emailToReader" edge="1" source="emailClient" target="emailReader" style="edgeStyle=orthogonalEdgeStyle;rounded=0;orthogonalLoop=1;html=1;strokeColor=#0066cc;">
          <mxGeometry relative="1" as="geometry" />
        </mxCell>

        <!-- LLM Component -->
        <mxCell id="llm" value="LLM for NLP" style="shape=rectangle;whiteSpace=wrap;html=1;fillColor=#fbe4d5;strokeColor=#cc6600;" vertex="1" parent="1">
          <mxGeometry x="420" y="100" width="120" height="60" as="geometry" />
        </mxCell>

        <!-- Link Reader to LLM -->
        <mxCell id="readerToLLM" edge="1" source="emailReader" target="llm" style="edgeStyle=orthogonalEdgeStyle;rounded=0;orthogonalLoop=1;html=1;strokeColor=#cc6600;">
          <mxGeometry relative="1" as="geometry" />
        </mxCell>

        <!-- Database -->
        <mxCell id="database" value="Database" style="shape=cylinder;whiteSpace=wrap;html=1;fillColor=#d9e8fb;strokeColor=#0066cc;" vertex="1" parent="1">
          <mxGeometry x="600" y="30" width="120" height="60" as="geometry" />
        </mxCell>

        <!-- Link LLM to Database -->
        <mxCell id="llmToDatabase" edge="1" source="llm" target="database" style="edgeStyle=orthogonalEdgeStyle;rounded=0;orthogonalLoop=1;html=1;strokeColor=#0066cc;">
          <mxGeometry relative="1" as="geometry" />
        </mxCell>

        <!-- Knowledge Base -->
        <mxCell id="knowledgeBase" value="Knowledge Base (Confluence, Jira, Docs)" style="shape=rectangle;whiteSpace=wrap;html=1;fillColor=#fbe4d5;strokeColor=#cc6600;" vertex="1" parent="1">
          <mxGeometry x="600" y="170" width="180" height="60" as="geometry" />
        </mxCell>

        <!-- Link LLM to Knowledge Base -->
        <mxCell id="llmToKnowledgeBase" edge="1" source="llm" target="knowledgeBase" style="edgeStyle=orthogonalEdgeStyle;rounded=0;orthogonalLoop=1;html=1;strokeColor=#cc6600;">
          <mxGeometry relative="1" as="geometry" />
        </mxCell>

        <!-- Notification System -->
        <mxCell id="notificationSystem" value="Notification System" style="shape=rectangle;whiteSpace=wrap;html=1;fillColor=#d9e8fb;strokeColor=#0066cc;" vertex="1" parent="1">
          <mxGeometry x="420" y="250" width="120" height="60" as="geometry" />
        </mxCell>

        <!-- Link Knowledge Base to Notification -->
        <mxCell id="knowledgeBaseToNotification" edge="1" source="knowledgeBase" target="notificationSystem" style="edgeStyle=orthogonalEdgeStyle;rounded=0;orthogonalLoop=1;html=1;strokeColor=#0066cc;">
          <mxGeometry relative="1" as="geometry" />
        </mxCell>

      </root>
    </mxGraphModel>
  </diagram>
</mxfile>
